<?xml version="1.0" encoding="utf-8"?>
<!-- Generator: Adobe Illustrator 24.2.3, SVG Export Plug-In . SVG Version: 6.00 Build 0)  -->
<svg version="1.1" id="Layer_1" xmlns="http://www.w3.org/2000/svg" xmlns:xlink="http://www.w3.org/1999/xlink" x="0px" y="0px"
	 viewBox="0 0 400 79.14" style="enable-background:new 0 0 400 79.14;" xml:space="preserve">
<style type="text/css">
	.st0{fill:#FD6A02;}
</style>
<g>
	<g>
		<path d="M131.26,67.4l0,9.51c0,1.04-0.85,1.88-1.88,1.88l-72.94,0.03c-1.04,0-1.89-0.85-1.89-1.88L54.53,25.2
			c0-1.04-0.85-1.88-1.89-1.88l-28.23,0.01c-1.04,0-1.89,0.85-1.88,1.88l0,1.01c0,1.04,0.85,1.89,1.89,1.88l23.41-0.01
			c1.04,0,1.88,0.85,1.88,1.88l0.02,46.95c0,1.04-0.85,1.88-1.88,1.88L1.91,78.84c-1.04,0-1.89-0.85-1.89-1.88L0.02,57.7
			c0-1.04,0.85-1.89,1.88-1.89l23.4-0.01c1.04,0,1.89-0.85,1.89-1.89l0-0.91c0-1.04-0.85-1.89-1.89-1.89L1.9,51.14
			c-1.04,0-1.89-0.85-1.89-1.88L0,2.2c0-1.04,0.85-1.88,1.88-1.88l73.28-0.03c1.04,0,1.89,0.85,1.89,1.88l0.02,51.73
			c0,1.04,0.85,1.89,1.89,1.88l27.88-0.01c1.04,0,1.89-0.85,1.88-1.89L108.7,2.16c0-1.04,0.85-1.88,1.88-1.88l18.76-0.01
			c1.04,0,1.89,0.85,1.89,1.88l0.01,28.22L131.26,67.4z"/>
		<path class="st0" d="M104.06,30.06c0-1.04-0.85-1.88-1.89-1.88l-18.58,0.01c-1.04,0-1.88,0.85-1.88,1.89l0.01,19.07
			c0,1.04,0.85,1.88,1.89,1.88l18.58-0.01c1.04,0,1.88-0.85,1.88-1.89L104.06,30.06z"/>
	</g>
	<g>
		<path d="M201.36,0.46c-0.76-0.17-1.6-0.27-2.34-0.36l-0.36-0.04c-7.09-0.53-16.54,2.66-25.29,8.52
			c-8.64,5.79-15.18,13.4-17.51,20.35l-0.07,0.26c-0.25,0.93-0.49,1.8-0.57,2.69c-1.25,8.02,5.6,14.4,11.64,20.03l0.27,0.25
			c5.94,5.44,11.07,10.13,7.56,14.18c-4.68,5.21-14.55,8.55-21.89,9.15c-2.29,0.2-4.39,0.11-6.25-0.27
			c-1.59-0.35-2.59-0.92-3.08-1.72c-0.28-0.43-0.48-1.22,0.1-2.5c0.28-0.55,0.33-1.11,0.16-1.56c-0.14-0.36-0.4-0.62-0.75-0.74
			c-0.14-0.05-0.3-0.08-0.46-0.08c-0.66,0-1.36,0.48-1.72,1.2c-1.47,3.04-0.91,5.01-0.18,6.12c0.86,1.35,2.39,2.25,4.68,2.78
			c1.2,0.28,2.59,0.43,4.22,0.43c0.88,0,1.82-0.04,2.84-0.12c7.99-0.61,18.93-4.41,24.4-10.5c6.14-6.99,0-12.68-7.11-19.26
			l-0.1-0.09c-5.66-5.17-12.08-11.03-11.17-17.53c0.15-0.72,0.3-1.46,0.56-2.21c1.88-5.89,7.75-12.58,15.69-17.9
			c7.96-5.42,16.62-8.35,23.22-7.83c0.45,0.01,0.96,0.09,1.5,0.18l0.1,0.02c0.2,0.03,0.4,0.07,0.56,0.08l0.1,0.02
			c2.19,0.48,3.39,1.42,3.68,2.87c1.19,5.94-12.81,18.23-13.41,18.75l-0.07,0.06c-0.71,0.7-0.93,1.7-0.53,2.38
			c0.2,0.38,0.51,0.62,0.91,0.68c0.44,0.06,0.92-0.11,1.36-0.51c0.36-0.26,0.99-0.84,2.19-1.96c1.2-1.13,3.03-2.91,4.91-4.97
			c4.86-5.33,7.64-9.79,8.29-13.26h0C208.16,4.02,206.12,1.48,201.36,0.46z"/>
		<g>
			<g>
				<path class="st0" d="M338.82,25.63c-0.09-0.71-0.43-1.23-1.06-1.64c-0.76-0.49-1.67-0.85-2.7-1.1
					c-1.08-0.25-2.18-0.41-3.28-0.48c-1.12-0.06-2.01-0.08-2.61-0.05h-0.03c-1.13,0-2.36,0.06-3.7,0.2
					c-1.34,0.14-2.67,0.4-3.93,0.78c-1.23,0.37-2.34,0.91-3.3,1.6c-0.89,0.64-1.49,1.48-1.82,2.57c-0.01,0.01-0.01,0.02-0.01,0.03
					c-0.42,1.23-0.42,2.18,0.02,2.91c0.49,0.8,1.23,1.42,2.29,1.87c1.12,0.49,2.44,0.8,3.93,0.93c1.52,0.14,3.05,0.14,4.56-0.01
					c1.49-0.14,2.88-0.44,4.13-0.88c1.18-0.42,2.03-0.92,2.56-1.5c0.71-0.8,1.03-1.68,0.97-2.69c-0.01-0.26,0.1-0.52,0.3-0.69
					c0.2-0.18,0.47-0.25,0.73-0.2c0.49,0.1,0.99,0.17,1.48,0.2c0.38,0.02,0.69-0.02,0.93-0.14c0.19-0.09,0.33-0.24,0.42-0.45
					C338.77,26.71,338.86,26.34,338.82,25.63z M333,29.07c-0.04,0.14-0.12,0.27-0.22,0.37c-0.6,0.58-1.27,1-2.01,1.23
					c-0.62,0.2-1.27,0.39-1.94,0.56c-0.05,0.01-0.11,0.02-0.17,0.02l-1.86,0.1c-0.38,0.02-0.76,0.03-1.15,0.03
					c-0.6,0-1.21-0.02-1.82-0.07c-1.04-0.08-2.02-0.26-2.91-0.52c-1.12-0.34-1.82-0.92-2.06-1.72c-0.07-0.24-0.04-0.49,0.08-0.69
					c0.02-0.07,0.06-0.15,0.1-0.21c0.53-0.85,1.37-1.48,2.52-1.9c1.04-0.38,2.18-0.6,3.41-0.66c1.17-0.06,2.34-0.05,3.48,0.06
					c1.1,0.11,2.01,0.21,2.75,0.3c0.11,0.01,0.21,0.05,0.31,0.1c0.13,0.02,0.26,0.07,0.42,0.13c0.07,0.03,0.14,0.07,0.2,0.12
					C333.01,27.02,333.32,28,333,29.07z"/>
			</g>
			<g>
				<path d="M399.56,31.14c-0.23-0.19-0.53-0.29-0.86-0.29c-0.12,0-0.25,0.01-0.37,0.04l-0.03,0.01c-13.13,3.57-18.47,5.75-24.85,9
					c-0.42,0.21-0.93,0.05-1.15-0.37c-0.83-1.59-1.73-3.01-2.65-4.24c-0.27-0.37-0.33-0.75-0.2-1.16c0.97-3.11,11.64-6.76,11.75-6.8
					c0.8-0.31,1.37-1.16,1.3-1.97c-0.01-0.02-0.01-0.05-0.01-0.07c-0.01-0.41-0.18-0.75-0.49-0.96c-0.3-0.21-0.69-0.26-1.07-0.15
					c-0.06,0.04-0.14,0.07-0.21,0.1c-2.36,0.7-11.67,4.24-14.03,8.74c-0.75,1.44-0.71,2.86,0.11,4.23c0.17,0.28,0.16,0.64-0.02,0.92
					c-0.18,0.28-0.51,0.42-0.84,0.38c-0.89-0.12-1.87-0.1-2.89,0.07c-1.51,0.25-2.96,0.41-4.3,0.49c-1.09,0.06-2.26,0.14-3.46,0.23
					c-1.22,0.1-2.48,0.15-3.75,0.15h-0.02c-1.29,0-2.55-0.12-3.76-0.36c-1.23-0.25-2.41-0.66-3.49-1.23
					c-1.07-0.59-1.7-0.33-2.09-0.07c-0.66,0.43-1,0.94-1.06,1.6c-0.02,0.25-0.15,0.48-0.36,0.62c-0.2,0.14-0.46,0.19-0.7,0.14
					c-1.15-0.28-2.25-0.16-3.35,0.36c0,0-0.02,0.01-0.05,0.03c-0.14,0.07-0.3,0.09-0.45,0.08c-0.41-0.03-0.79-0.02-1.11,0.03
					c-2.18,0.44-4.37,1.05-6.47,1.84c-2.08,0.78-4.23,1.61-6.4,2.46c-1.67,0.68-3.34,1.27-4.96,1.76c-0.44,0.17-0.98,0.29-1.59,0.36
					c-0.5,0.06-1.03,0.17-1.57,0.32c-0.28,0.07-0.58,0.01-0.8-0.18c-0.22-0.19-0.33-0.48-0.28-0.77c0.09-0.63,0.15-1.27,0.18-1.9
					c0.02-0.54-0.05-1.04-0.2-1.48c-0.13-0.37-0.36-0.67-0.69-0.91c-0.33-0.23-0.83-0.36-1.49-0.37l-0.91,0.05
					c-1.31,0.2-2.6,0.51-3.86,0.92c-1.3,0.42-2.59,0.91-3.85,1.42c-2.13,0.89-4.28,1.92-6.39,3.07c-2.19,1.19-4.48,2.1-6.8,2.7
					c-0.31,0.08-0.65-0.02-0.86-0.26c-0.21-0.24-0.28-0.58-0.15-0.88c0.72-1.8,1.68-3.58,2.87-5.3c1.16-1.69,2.44-3.34,3.78-4.9
					c1.32-1.54,2.71-3.07,4.12-4.54c1.39-1.46,2.74-2.87,4.04-4.25c2.64-2.87,5.4-5.73,8.22-8.49c2.79-2.73,5.65-5.45,8.5-8.08
					c0.29-0.33,0.44-0.68,0.46-1.06c0.02-0.42-0.06-0.79-0.26-1.11c-0.19-0.32-0.45-0.53-0.77-0.66c-0.3-0.12-0.66-0.1-1.11,0.06
					c-1.03,0.34-2.03,1.1-3,2.24c-1.07,1.26-2.03,2.34-2.87,3.2c-2.7,2.6-5.35,5.22-7.9,7.82c-2.56,2.63-5.11,5.34-7.55,8.06
					l-1.25,1.4c-0.58,0.64-1.26,1.43-2.02,2.35c-0.77,0.93-1.6,1.94-2.49,3.03c-0.87,1.08-1.74,2.24-2.57,3.44
					c-0.1,0.14-0.23,0.25-0.39,0.31c-0.24,0.1-0.5,0.17-0.78,0.23c-0.14,0.02-0.29,0.09-0.46,0.18c-0.11,0.07-0.25,0.11-0.38,0.11
					c-0.27,0.02-0.5-0.05-0.66-0.13c-2.43-0.46-4.93-0.5-7.44-0.13c-1.61,0.25-3.18,0.68-4.66,1.27c-0.16,0.07-0.34,0.08-0.51,0.05
					c-0.18-0.05-0.34-0.06-0.5-0.06c-0.51,0-1.04,0.07-1.58,0.22c-0.59,0.16-1.18,0.35-1.75,0.56c-0.62,0.24-1.16,0.44-1.62,0.59
					c-1.85,0.57-3.63,1.15-5.32,1.72c-1.74,0.58-3.51,1.19-5.31,1.82l-4.71,1.73c-0.33,0.12-0.7,0.03-0.94-0.24
					c-0.24-0.26-0.28-0.64-0.13-0.96c0.16-0.32,0.22-0.65,0.18-1c-0.02-0.23-0.17-0.62-0.68-1.22c-0.58-0.5-1.24-0.73-2.01-0.69
					c-0.93,0.05-1.83,0.19-2.67,0.41c-0.99,0.37-2.05,0.85-3.14,1.4c-1.11,0.57-2.3,1.15-3.52,1.73c-1.22,0.57-2.45,1.06-3.66,1.46
					c-1.26,0.42-2.53,0.66-3.78,0.73c-0.36,0.02-0.65-0.15-0.8-0.45c-0.16-0.29-0.14-0.65,0.06-0.92c0.51-0.7,0.92-1.39,1.22-2.07
					c0.06-0.16,0.27-0.64-0.46-1.55c-0.53-0.66-1.22-0.95-2.17-0.9c-0.06,0.01-0.12,0.03-0.18,0.04l-0.11,0.03
					c-0.1,0.02-0.21,0.03-0.32,0.01c-0.34-0.05-0.67-0.05-0.99,0.01c-1.33,0.2-2.64,0.51-3.91,0.92c-1.3,0.43-2.59,0.91-3.85,1.42
					c-2.14,0.89-4.3,1.91-6.4,3.03c-2.18,1.16-4.45,2.08-6.76,2.74c-0.32,0.09-0.66-0.01-0.88-0.26c-0.22-0.25-0.28-0.6-0.14-0.91
					c1.54-3.56,3.78-6.99,6.64-10.18c2.81-3.14,5.51-6.09,8.05-8.78l0.95-0.95c0.15-0.15,0.35-0.24,0.56-0.25
					c1.09-0.06,2.2-0.1,3.31-0.13c1.08-0.03,2.2-0.04,3.32-0.03c1.89-0.03,3.8-0.04,5.67-0.01c1.89,0.03,3.81,0.09,5.7,0.18
					c1.05,0.07,2.35,0.13,3.98,0.17c1.74,0.05,3.23,0.41,4.43,1.07c0.04,0.03,0.08,0.05,0.12,0.08c0.18,0.08,0.32,0.19,0.44,0.3
					c0.24,0.21,0.34,0.52,0.28,0.81c0.1,0.1,0.22,0.17,0.35,0.23c0.44,0.19,0.89,0.24,1.36,0.14c0.47-0.1,0.87-0.33,1.21-0.71
					c0.28-0.32,0.38-0.76,0.32-1.33c-0.15-0.74-0.44-1.31-0.87-1.74c-0.48-0.48-1.01-0.83-1.65-1.08c-1.67-0.66-3.46-1.12-5.34-1.36
					c-1.91-0.25-3.9-0.37-5.91-0.36c-2.03,0.02-4.08,0.09-6.08,0.24c-1.97,0.14-3.95,0.26-5.9,0.37c-0.37,0.02-0.68-0.18-0.83-0.51
					c-0.14-0.33-0.07-0.7,0.18-0.96c1.8-1.8,3.66-3.61,5.53-5.39c1.86-1.77,3.76-3.55,5.69-5.36c0.29-0.33,0.44-0.68,0.46-1.06
					c0.02-0.42-0.06-0.78-0.26-1.11c-0.19-0.31-0.45-0.53-0.77-0.66c-0.3-0.12-0.67-0.1-1.11,0.06c-1.02,0.34-2.02,1.1-2.99,2.25
					c-1.07,1.26-2.03,2.34-2.87,3.2c-1.74,1.66-3.4,3.26-4.97,4.81c-1.63,1.6-3.26,3.25-4.84,4.88c-0.14,0.15-0.34,0.24-0.56,0.26
					c-8.07,0.57-16.33,1.35-24.54,2.32c-8.19,0.96-16.22,2.72-23.87,5.21c-0.28,0.1-0.37,0.23-0.36,0.56c0,0.22,0.03,0.41,0.49,0.54
					c0.11,0.04,0.26,0.07,0.52-0.03c0.41-0.16,0.8-0.29,1.16-0.38c1.35-0.4,2.73-0.73,4.1-0.97c1.25-0.22,2.57-0.47,4.03-0.76
					c3.76-0.6,7.57-1.12,11.35-1.56c3.73-0.43,7.54-0.82,11.33-1.16c1.93-0.17,3.81-0.31,5.62-0.41l5.59-0.3h0.05
					c0.35,0,0.67,0.21,0.8,0.54c0.14,0.34,0.04,0.73-0.25,0.97c-0.2,0.17-0.37,0.34-0.52,0.54c-0.2,0.25-0.42,0.52-0.69,0.82
					c-0.37,0.41-1.14,1.29-2.31,2.63c-1.15,1.31-2.42,2.88-3.8,4.65c-1.36,1.76-2.65,3.61-3.83,5.51c-1.16,1.86-2.01,3.61-2.52,5.17
					c-0.46,1.4-0.49,2.53-0.08,3.34c0.45,0.88,2.02,1.07,3.26,1.08c1.82-0.04,3.66-0.48,5.46-1.32c1.86-0.87,3.66-1.73,5.36-2.55
					c1.67-0.82,3.35-1.61,5.02-2.35c1.42-0.64,2.91-1.17,4.45-1.59c0.3-0.09,0.62,0,0.84,0.22c0.22,0.22,0.3,0.54,0.22,0.84
					c-0.16,0.59-0.21,1.13-0.14,1.61c0.08,0.53,0.34,0.99,0.79,1.37c0.48,0.41,1.3,0.66,2.44,0.77c1.98,0.2,4.04-0.07,6.14-0.8
					c2.18-0.76,4.37-1.63,6.53-2.6c0.26-0.11,0.56-0.1,0.8,0.05c0.24,0.15,0.4,0.4,0.41,0.69c0.04,0.66,0.37,1.25,1,1.77
					c0.02,0.02,0.04,0.03,0.06,0.05c0.52,0.51,1.22,0.74,2.16,0.68c2.14-0.11,4.28-0.52,6.36-1.2c2.13-0.7,4.26-1.48,6.36-2.34
					c1.55-0.64,3.21-1.29,5.07-2.01c0.29-0.11,0.62-0.06,0.85,0.14c0.24,0.19,0.36,0.51,0.3,0.81c-0.01,0.05-0.02,0.09-0.03,0.14
					c-0.04,0.21-0.15,0.87,0.85,1.77c0.43,0.38,0.85,0.61,1.29,0.68c0.53,0.09,1.13,0.11,1.78,0.07c2.14-0.24,4.38-0.83,6.61-1.74
					c2.28-0.93,4.49-1.93,6.57-2.95c0.3-0.15,0.67-0.11,0.93,0.11c0.26,0.22,0.37,0.57,0.27,0.9c-0.38,1.31-0.36,2.39,0.05,3.2
					c0.45,0.88,1.97,1.08,3.16,1.09c1.82-0.04,3.66-0.49,5.46-1.32c1.92-0.89,3.74-1.74,5.47-2.56l4.8-2.24
					c1.64-0.76,3.39-1.37,5.18-1.81c0.29-0.07,0.58,0.01,0.8,0.21c0.21,0.2,0.3,0.49,0.26,0.78c-0.18,1-0.15,1.99,0.07,2.94
					c0.18,0.76,0.81,1.31,1.91,1.66c1.03,0.26,2.22,0.15,3.48-0.35c1.44-0.57,2.71-1.08,3.79-1.53c1.91-0.77,3.81-1.51,5.68-2.19
					c1.86-0.68,3.8-1.35,5.77-2c0.53-0.18,1.13-0.37,1.86-0.57c0.28-0.08,0.57-0.02,0.79,0.17c0.22,0.18,0.33,0.46,0.3,0.75
					c-0.05,0.52-0.05,0.99,0.01,1.45c0.1,0.77,0.36,1.42,0.8,1.99c0.41,0.53,0.99,0.87,1.78,1.03c0.91,0.17,1.79,0.1,2.72-0.24
					c0.96-0.35,1.85-0.88,2.64-1.57c0.81-0.72,1.56-1.58,2.21-2.56c0.65-0.99,1.13-2.02,1.44-3.07c0.07-0.24,0.24-0.44,0.46-0.54
					c0.22-0.11,0.49-0.11,0.71-0.01c0.14,0.06,0.27,0.09,0.4,0.09c0.07-0.01,0.15,0,0.22,0.01c3.29,0.66,6.67,0.85,10.03,0.57
					c3.3-0.28,6.54-0.53,9.73-0.77c0.37-0.03,0.73,0.19,0.87,0.55c0.14,0.36,0.02,0.76-0.28,0.99c-1.05,0.81-1.79,1.55-2.21,2.21
					c-1.45,2.17-0.42,3.32,0.08,3.71l0.17,0.14c0.62,0.41,1.45,0.61,2.69,0.63h0.18c0.87,0,1.78-0.11,2.79-0.33l0.07-0.02
					c1.81-0.58,3.01-1.77,3.55-3.51c0.29-0.91,0.32-2.01,0.07-3.2c-0.08-0.38,0.11-0.77,0.46-0.94c6.04-3.03,11.19-5.09,24.14-8.62
					c0.97-0.22,1.48-1.18,1.5-2.01C400.01,31.73,399.85,31.37,399.56,31.14z M338.99,46.42c-0.15,0.17-0.37,0.28-0.59,0.29
					c-0.47,0.02-0.61,0.11-0.61,0.11c-0.17,0.18-0.38,0.28-0.61,0.28c-0.15,0-0.3-0.04-0.44-0.13c-0.36-0.21-0.49-0.65-0.36-1.03
					c0.17-0.51,0.46-0.91,0.87-1.2c0.26-0.18,0.38-0.29,0.42-0.34c0.23-0.26,0.6-0.35,0.92-0.23s0.56,0.42,0.57,0.76l0.05,0.88
					C339.22,46.03,339.14,46.26,338.99,46.42z M370.79,46.59c-0.09,0.21-0.25,0.38-0.45,0.48l-0.09,0.04
					c-0.1,0.04-0.22,0.06-0.33,0.06c-0.31,0-0.61-0.17-0.76-0.46c-0.21-0.39-0.08-0.88,0.29-1.12c0.32-0.21,0.76-0.2,1.05,0.03
					C370.8,45.86,370.93,46.24,370.79,46.59z"/>
			</g>
		</g>
	</g>
</g>
</svg>
