<?xml version="1.0" encoding="utf-8"?>
<!-- Generator: Adobe Illustrator 24.2.3, SVG Export Plug-In . SVG Version: 6.00 Build 0)  -->
<svg version="1.1" id="Layer_1" xmlns="http://www.w3.org/2000/svg" xmlns:xlink="http://www.w3.org/1999/xlink" x="0px" y="0px"
	 viewBox="0 0 468.61 450.16" style="enable-background:new 0 0 468.61 450.16;" xml:space="preserve">
<style type="text/css">
	.st0{fill:#FFFFFF;}
</style>
<path class="st0" d="M222.51,429.68c-7.75-1.05-15.55-1.81-23.24-3.18c-47.14-8.39-86.57-30.7-118.23-66.52
	c-28.88-32.67-45.7-70.95-49.87-114.29c-5.14-53.5,8.52-102.11,41.35-144.79c30.41-39.53,70.15-65.16,119.05-75.36
	c61.08-12.74,117.1-0.24,166.84,37.45c39.98,30.3,65.19,70.53,75.87,119.63c1.88,8.67,2.61,17.59,3.89,26.39
	c0.21,1.42,0.49,2.83,0.74,4.24c0,7.99,0,15.97,0,23.96c-0.33,2.87-0.66,5.75-0.98,8.62c-4.89,43.99-21.69,82.8-51.34,115.71
	c-31.48,34.94-70.48,56.75-116.89,64.96c-7.69,1.36-15.49,2.13-23.23,3.18C238.48,429.68,230.5,429.68,222.51,429.68z
	 M421.91,225.25c0.04-103.14-84.22-187.43-187.4-187.48c-103.12-0.04-187.4,84.23-187.45,187.43
	c-0.04,103.14,84.22,187.43,187.4,187.48C337.59,412.73,421.87,328.45,421.91,225.25z"/>
<path class="st0" d="M183.39,225.06c0-24.62,0.03-49.24-0.03-73.86c-0.01-4.07,0.49-7.77,4.41-9.97c4.1-2.31,7.59-0.61,11.11,1.66
	c38.11,24.55,76.26,49.06,114.39,73.58c8.67,5.57,8.68,11.93,0.04,17.49c-38.24,24.6-76.49,49.19-114.75,73.77
	c-5.18,3.33-9.47,3.72-12.25,0.28c-1.67-2.07-2.78-5.22-2.8-7.9C183.3,275.09,183.39,250.08,183.39,225.06z M200.47,286.27
	c31.88-20.5,63.11-40.58,94.93-61.04c-31.89-20.5-63.17-40.61-94.93-61.02C200.47,205.24,200.47,245.27,200.47,286.27z"/>
</svg>
